<?xml version="1.0" encoding="utf-8"?>
<!-- Generator: Adobe Illustrator 22.1.0, SVG Export Plug-In . SVG Version: 6.00 Build 0)  -->
<svg version="1.1" id="Layer_1" xmlns="http://www.w3.org/2000/svg" xmlns:xlink="http://www.w3.org/1999/xlink" x="0px" y="0px"
	 viewBox="0 0 1300 550" style="enable-background:new 0 0 1300 550;" xml:space="preserve">
<g>
	<rect x="0" style="fill:#FFFFFF;" width="1300" height="550"/>
	<g>
		<defs>
			<rect id="SVGID_7_" width="1300" height="550"/>
		</defs>
		<clipPath id="SVGID_2_">
			<use xlink:href="#SVGID_7_"  style="overflow:visible;"/>
		</clipPath>
		<g style="clip-path:url(#SVGID_2_);">
			<rect x="283.461" y="174.2" style="fill:#EB0A1E;" width="201.6" height="201.6"/>
			<g>
				<path d="M960.673,281.287l11.31-29.658l11.293,29.658H960.673z M983.723,234.787h-23.489l-32.823,80.419h20.348l7.476-19.625
					h33.485l7.479,19.625h20.339L983.723,234.787z M818.056,301.224c-13.256,0-23.982-11.957-23.982-26.714
					c0-14.758,10.726-26.724,23.982-26.724c13.233,0,23.976,11.966,23.976,26.724C842.031,289.266,831.289,301.224,818.056,301.224
					 M818.056,232.03c-23.464,0-42.486,19.02-42.486,42.479c0,23.459,19.022,42.469,42.486,42.469
					c23.449,0,42.48-19.011,42.48-42.469C860.536,251.05,841.505,232.03,818.056,232.03 M650.433,301.224
					c-13.233,0-23.967-11.957-23.967-26.714c0-14.758,10.735-26.724,23.967-26.724c13.248,0,23.984,11.966,23.984,26.724
					C674.417,289.266,663.682,301.224,650.433,301.224 M650.433,232.03c-23.458,0-42.462,19.02-42.462,42.479
					c0,23.459,19.004,42.469,42.462,42.469c23.458,0,42.479-19.011,42.479-42.469C692.913,251.05,673.891,232.03,650.433,232.03
					 M755.428,234.787l-20.814,32.537l-20.83-32.537h-20.356l32.221,50.431v29.988h17.918v-29.98l32.217-50.438H755.428z
					 M931.693,234.787h-68.754v15.421h25.465v64.998h17.935v-64.998h25.353V234.787z M535.461,250.208h25.473v64.998h17.927v-64.998
					h25.363v-15.421h-68.763V250.208z"/>
			</g>
			<path style="fill:#FFFFFF;" d="M384.261,229.234c-38.065,0-67.2,19.629-67.2,45.766c0,25.276,28.392,45.766,67.2,45.766
				c38.808,0,67.2-20.49,67.2-45.766C451.461,248.863,422.326,229.234,384.261,229.234z M426.162,248.863
				c1.4,5.642-5.171,12.693-26.317,14.999c-1.408-14.369-5.668-26.508-12.733-29.079c9.508,0.268,18.522,1.876,26.38,4.727
				C420.841,242.284,425.407,245.821,426.162,248.863z M394.841,274.779c0,18.206-5.468,25.752-10.58,25.752
				c-5.112,0-10.58-7.546-10.58-25.752c0-0.064,0.001-0.126,0.001-0.19c3.397,0.288,6.934,0.438,10.579,0.438
				s7.182-0.15,10.579-0.438C394.84,274.653,394.841,274.715,394.841,274.779z M384.258,264.632c-3.566,0-6.864-0.102-9.913-0.29
				c1.606-11.905,5.872-18.826,9.916-18.826c4.044,0,8.31,6.921,9.916,18.826C391.127,264.53,387.827,264.632,384.258,264.632z
				 M342.354,248.863c0.751-3.027,5.274-6.544,12.557-9.311c7.885-2.878,16.943-4.5,26.499-4.769
				c-7.064,2.571-11.324,14.71-12.733,29.08C347.526,261.558,340.953,254.506,342.354,248.863z M326.972,273.351
				c0-7.708,2.581-14.368,7.072-19.883c0.582,10.219,14.404,17.84,34.115,20.515c-0.002,0.265-0.003,0.53-0.003,0.795
				c0,24.656,6.321,37.726,13.328,40.426C351.394,314.124,326.972,295.591,326.972,273.351z M386.916,315.209
				c7.055-2.817,13.451-16.841,13.451-40.43c0-0.265-0.001-0.53-0.003-0.795c19.71-2.675,33.533-10.296,34.115-20.515
				c4.491,5.515,7.072,12.175,7.072,19.883C441.551,295.621,417.062,314.173,386.916,315.209z"/>
		</g>
	</g>
</g>
</svg>
