<svg xmlns="http://www.w3.org/2000/svg" viewBox="0 0 683.77 186.81"><defs><style>.cls-1{fill:#f4b030;}.cls-2{fill:#fff;}</style></defs><title>MER_Logo_Dark_Background</title><g id="Your_design" data-name="Your design"><polygon class="cls-1" points="504.5 59.12 485.47 86.29 380.51 86.29 399.49 59.12 504.5 59.12"/><path class="cls-2" d="M839,542.92H816.43a20.58,20.58,0,0,1-18.35-11.17L774.2,489.07H674.56l19-27.18H793.67c11.57,0,11.57-3.53,11.57-6.36v-12.9c0-2.6,0-7.42-11.57-7.42H573.33l19-27.18H793.67a70.27,70.27,0,0,1,19.51,2.4,37.49,37.49,0,0,1,13.89,7.16,27.47,27.47,0,0,1,8.11,11.32,38.14,38.14,0,0,1,2.45,13.92v12.52c0,9.18-2.77,17-8.25,23.2-4.57,5.16-11.51,8.64-20.69,10.36Z" transform="translate(-155.23 -402.78)"/><polygon class="cls-2" points="500.7 112.97 361.88 112.97 342.9 140.14 481.72 140.14 500.7 112.97"/><path class="cls-2" d="M515.41,408v61.72l-29,41.5V462.8l-49.23,70.5a23.59,23.59,0,0,1-19,9.62h-2a23.59,23.59,0,0,1-19-9.62L348,465.8v77.12h-29V408h11.71a26.75,26.75,0,0,1,21.58,11l64.88,89.26,64.55-89.21a26.69,26.69,0,0,1,21.6-11Z" transform="translate(-155.23 -402.78)"/><path class="cls-2" d="M263.14,431.56c9,.9,18,2.09,27,3.45V408c-9-1.36-18-2.55-27-3.45Z" transform="translate(-155.23 -402.78)"/><path class="cls-2" d="M209.18,430.53a264.17,264.17,0,0,1,27-.69v-27a264.17,264.17,0,0,0-27,.69Z" transform="translate(-155.23 -402.78)"/><path class="cls-2" d="M155.23,441.91a197.21,197.21,0,0,1,27-7.59v-27a197.21,197.21,0,0,0-27,7.59Z" transform="translate(-155.23 -402.78)"/><path class="cls-2" d="M209.18,457.51a217.74,217.74,0,0,0-27,3.79v-27a217.74,217.74,0,0,1,27-3.79Z" transform="translate(-155.23 -402.78)"/><path class="cls-2" d="M263.14,458.54c-9-.9-18-1.51-27-1.72v-27c9,.21,18,.82,27,1.72Z" transform="translate(-155.23 -402.78)"/><path class="cls-2" d="M263.14,485.52c9,.9,18,2.09,27,3.45V462c-9-1.36-18-2.55-27-3.45Z" transform="translate(-155.23 -402.78)"/><path class="cls-2" d="M209.18,484.48a264.16,264.16,0,0,1,27-.68v-27a264.17,264.17,0,0,0-27,.69Z" transform="translate(-155.23 -402.78)"/><path class="cls-2" d="M155.23,495.86a198.58,198.58,0,0,1,27-7.58v-27a197.21,197.21,0,0,0-27,7.59Z" transform="translate(-155.23 -402.78)"/><path class="cls-2" d="M209.18,511.46a217.78,217.78,0,0,0-27,3.8v-27a217.78,217.78,0,0,1,27-3.8Z" transform="translate(-155.23 -402.78)"/><path class="cls-2" d="M263.14,512.5c-9-.9-18-1.52-27-1.73v-27c9,.21,18,.82,27,1.72Z" transform="translate(-155.23 -402.78)"/><path class="cls-2" d="M263.14,539.48c9,.9,18,2.08,27,3.44V516c-9-1.36-18-2.55-27-3.45Z" transform="translate(-155.23 -402.78)"/><path class="cls-2" d="M209.18,538.44a264.17,264.17,0,0,1,27-.69v-27a264.17,264.17,0,0,0-27,.69Z" transform="translate(-155.23 -402.78)"/><path class="cls-2" d="M155.23,549.82a197.21,197.21,0,0,1,27-7.59v-27a195.73,195.73,0,0,0-27,7.58Z" transform="translate(-155.23 -402.78)"/><path class="cls-1" d="M182.36,569.64l-11.79,16.29-11.83-16.29h-3.51v20h3.47v-14l10.17,14H172l10.15-14v14h3.48v-20Z" transform="translate(-155.23 -402.78)"/><path class="cls-1" d="M196,569.64v20h3.77v-20Z" transform="translate(-155.23 -402.78)"/><path class="cls-1" d="M216.25,572.58h16.07v-2.94H216.25a10,10,0,0,0-2.88.36,5.35,5.35,0,0,0-1.94,1,3.86,3.86,0,0,0-1.09,1.52,5.42,5.42,0,0,0-.35,2v10.31a5.33,5.33,0,0,0,.35,2,3.72,3.72,0,0,0,1.09,1.52,5.36,5.36,0,0,0,1.94,1,10,10,0,0,0,2.88.36h16.07v-3H216.25c-1.66,0-2.49-.61-2.49-1.85V574.42C213.76,573.2,214.59,572.58,216.25,572.58Z" transform="translate(-155.23 -402.78)"/><path class="cls-1" d="M262.34,569.64v7.94H246v-7.94h-3.77v20H246v-9.07h16.31v9.07h3.77v-20Z" transform="translate(-155.23 -402.78)"/><path class="cls-1" d="M276.48,569.64v20h3.75v-20Z" transform="translate(-155.23 -402.78)"/><path class="cls-1" d="M309.8,578.71v6.63c0,.87-1.13,1.3-3.36,1.3h-8.81c-2.21,0-3.34-.45-3.34-1.36V574c0-.91,1.13-1.37,3.34-1.37h15.62v-2.94H297.63q-7.11,0-7.11,4.31v11.33q0,4.31,7.11,4.31h8.81q7.11,0,7.11-4.25v-6.63Z" transform="translate(-155.23 -402.78)"/><path class="cls-1" d="M337.92,569.64h-2.75l-13.25,20h4.19l10.45-16.06,10.29,16.06h4.24Z" transform="translate(-155.23 -402.78)"/><path class="cls-1" d="M383.5,569.64v14.81l-19.87-14.81h-3.26v20h3.3V574.07l21.27,15.52h1.84v-20Z" transform="translate(-155.23 -402.78)"/><path class="cls-1" d="M433,572.58v-2.94H412.49v20H433v-3H416.26v-6.12h15.9v-2.94h-15.9v-5Z" transform="translate(-155.23 -402.78)"/><path class="cls-1" d="M446.75,586.64v-17H443v20h20v-3Z" transform="translate(-155.23 -402.78)"/><path class="cls-1" d="M493.1,572.58v-2.94H472.6v20h20.5v-3H476.38v-6.12h15.87v-2.94H476.38v-5Z" transform="translate(-155.23 -402.78)"/><path class="cls-1" d="M509.2,572.58h16.05v-2.94H509.2c-.28,0-.55,0-.81,0a8.6,8.6,0,0,0-2.07.34,5.35,5.35,0,0,0-1.94,1,3.91,3.91,0,0,0-1.11,1.52,5.88,5.88,0,0,0-.33,2v10.31a5.78,5.78,0,0,0,.33,2,3.77,3.77,0,0,0,1.11,1.52,5.36,5.36,0,0,0,1.94,1,10,10,0,0,0,2.88.36h16.05v-3H509.2c-1.66,0-2.49-.61-2.49-1.85V574.42C506.71,573.2,507.54,572.58,509.2,572.58Z" transform="translate(-155.23 -402.78)"/><path class="cls-1" d="M534.62,569.64v2.94h10.44v17h3.77v-17H559v-2.94Z" transform="translate(-155.23 -402.78)"/><path class="cls-1" d="M591.83,575.88v-1.42a5.64,5.64,0,0,0-.34-2A4,4,0,0,0,590.4,571a5.41,5.41,0,0,0-1.95-1,10,10,0,0,0-2.88-.36h-17v20h3.77v-8.91H582.9l4.68,8.91h4l-4.72-9a5.65,5.65,0,0,0,3.81-1.56A4.65,4.65,0,0,0,591.83,575.88Zm-3.78,0c0,1.23-.82,1.84-2.48,1.84H572.39v-5.16h13.18c1.66,0,2.48.62,2.48,1.84Z" transform="translate(-155.23 -402.78)"/><path class="cls-1" d="M601.76,569.64v20h3.77v-20Z" transform="translate(-155.23 -402.78)"/><path class="cls-1" d="M622.06,572.58h16.08v-2.94H622.06a10.06,10.06,0,0,0-2.88.36,5.44,5.44,0,0,0-1.94,1,3.74,3.74,0,0,0-1.08,1.52,5.21,5.21,0,0,0-.34,2v10.31a5.12,5.12,0,0,0,.34,2,3.61,3.61,0,0,0,1.08,1.52,5.45,5.45,0,0,0,1.94,1,10.06,10.06,0,0,0,2.88.36h16.08v-3H622.06c-1.66,0-2.49-.61-2.49-1.85V574.42C619.57,573.2,620.4,572.58,622.06,572.58Z" transform="translate(-155.23 -402.78)"/><path class="cls-1" d="M686.54,575.88v-1.42a5.42,5.42,0,0,0-.35-2A3.67,3.67,0,0,0,685.1,571a5.35,5.35,0,0,0-1.94-1,10,10,0,0,0-2.88-.36H663.34v20h3.77v-8.91h10.5l4.69,8.91h4l-4.7-9a5.58,5.58,0,0,0,3.8-1.56A4.56,4.56,0,0,0,686.54,575.88Zm-3.77,0c0,1.23-.83,1.84-2.49,1.84H667.11v-5.16h13.17c1.66,0,2.49.62,2.49,1.84Z" transform="translate(-155.23 -402.78)"/><path class="cls-1" d="M711.4,569.64h-2.74l-13.25,20h4.18L710,573.53l10.29,16.06h4.25Z" transform="translate(-155.23 -402.78)"/><path class="cls-1" d="M739.17,572.58h16.06v-2.94H739.17a10,10,0,0,0-2.88.36,5.54,5.54,0,0,0-2,1,3.74,3.74,0,0,0-1.08,1.52,5.64,5.64,0,0,0-.34,2v10.31a5.54,5.54,0,0,0,.34,2,3.61,3.61,0,0,0,1.08,1.52,5.55,5.55,0,0,0,2,1,10,10,0,0,0,2.88.36h16.06v-3H739.17c-1.66,0-2.49-.61-2.49-1.85V574.42C736.68,573.2,737.51,572.58,739.17,572.58Z" transform="translate(-155.23 -402.78)"/><path class="cls-1" d="M765.24,569.64v20H769v-20Z" transform="translate(-155.23 -402.78)"/><path class="cls-1" d="M802.48,569.64v14.81l-19.84-14.81h-3.26v20h3.28V574.07l21.27,15.52h1.85v-20Z" transform="translate(-155.23 -402.78)"/><path class="cls-1" d="M835.23,578.71v6.63c0,.87-1.11,1.3-3.34,1.3h-8.81c-2.23,0-3.35-.45-3.35-1.36V574c0-.91,1.12-1.37,3.35-1.37h15.6v-2.94h-15.6q-7.11,0-7.11,4.31v11.33q0,4.31,7.11,4.31h8.81q7.11,0,7.11-4.25v-6.63Z" transform="translate(-155.23 -402.78)"/></g></svg>